<mxfile host="app.diagrams.net" modified="2024-07-20T18:06:52.075Z" agent="Mozilla/5.0 (Windows NT 10.0; Win64; x64) AppleWebKit/537.36 (KHTML, like Gecko) Chrome/126.0.0.0 Safari/537.36" version="24.7.2" etag="6q_7ixKxm6unfiFga3iS" type="github">
  <diagram name="Page-1" id="LgSYHyY76Pq3pHOkBGBk">
    <mxGraphModel>
      <root>
        <mxCell id="0" />
        <mxCell id="1" parent="0" />
        <mxCell id="2" value="Website" style="whiteSpace=wrap;strokeWidth=2;verticalAlign=top;" vertex="1" parent="1">
          <mxGeometry width="1617" height="1096" as="geometry" />
        </mxCell>
        <mxCell id="3" value="Vehicle Repair Center" style="whiteSpace=wrap;strokeWidth=2;verticalAlign=top;" vertex="1" parent="2">
          <mxGeometry x="33" y="43" width="1567" height="488" as="geometry" />
        </mxCell>
        <mxCell id="4" value="Online Scheduling" style="whiteSpace=wrap;strokeWidth=2;verticalAlign=top;" vertex="1" parent="3">
          <mxGeometry x="43" y="33" width="238" height="438" as="geometry" />
        </mxCell>
        <mxCell id="5" value="Select Service" style="whiteSpace=wrap;strokeWidth=2;" vertex="1" parent="4">
          <mxGeometry x="69" y="136" width="116" height="34" as="geometry" />
        </mxCell>
        <mxCell id="6" value="Login" style="whiteSpace=wrap;strokeWidth=2;" vertex="1" parent="4">
          <mxGeometry x="101" y="33" width="53" height="34" as="geometry" />
        </mxCell>
        <mxCell id="7" value="Select Date" style="whiteSpace=wrap;strokeWidth=2;" vertex="1" parent="4">
          <mxGeometry x="79" y="219" width="97" height="34" as="geometry" />
        </mxCell>
        <mxCell id="8" value="Select Time" style="whiteSpace=wrap;strokeWidth=2;" vertex="1" parent="4">
          <mxGeometry x="78" y="303" width="99" height="34" as="geometry" />
        </mxCell>
        <mxCell id="9" value="Confirm Appointment" style="whiteSpace=wrap;strokeWidth=2;" vertex="1" parent="4">
          <mxGeometry x="43" y="387" width="168" height="34" as="geometry" />
        </mxCell>
        <mxCell id="10" value="Authenticates user" style="curved=1;startArrow=none;endArrow=block;exitX=-0.32;exitY=0.02;entryX=0.13;entryY=-0.98;" edge="1" parent="4" source="6" target="5">
          <mxGeometry relative="1" as="geometry">
            <Array as="points" />
          </mxGeometry>
        </mxCell>
        <mxCell id="11" value="" style="curved=1;startArrow=none;endArrow=block;exitX=0.13;exitY=0.01;entryX=0.05;entryY=-0.96;" edge="1" parent="4" source="5" target="7">
          <mxGeometry relative="1" as="geometry">
            <Array as="points" />
          </mxGeometry>
        </mxCell>
        <mxCell id="12" value="" style="curved=1;startArrow=none;endArrow=block;exitX=0.05;exitY=0.04;entryX=0.06;entryY=-0.96;" edge="1" parent="4" source="7" target="8">
          <mxGeometry relative="1" as="geometry">
            <Array as="points" />
          </mxGeometry>
        </mxCell>
        <mxCell id="13" value="" style="curved=1;startArrow=none;endArrow=block;exitX=0.06;exitY=0.03;entryX=0.25;entryY=-0.97;" edge="1" parent="4" source="8" target="9">
          <mxGeometry relative="1" as="geometry">
            <Array as="points" />
          </mxGeometry>
        </mxCell>
        <mxCell id="14" value="View Status" style="whiteSpace=wrap;strokeWidth=2;verticalAlign=top;" vertex="1" parent="3">
          <mxGeometry x="331" y="200" width="599" height="104" as="geometry" />
        </mxCell>
        <mxCell id="15" value="View Appointments" style="whiteSpace=wrap;strokeWidth=2;" vertex="1" parent="14">
          <mxGeometry x="272" y="43" width="153" height="34" as="geometry" />
        </mxCell>
        <mxCell id="16" value="Login" style="whiteSpace=wrap;strokeWidth=2;" vertex="1" parent="14">
          <mxGeometry x="33" y="43" width="53" height="34" as="geometry" />
        </mxCell>
        <mxCell id="17" value="Check Status" style="whiteSpace=wrap;strokeWidth=2;" vertex="1" parent="14">
          <mxGeometry x="475" y="43" width="107" height="34" as="geometry" />
        </mxCell>
        <mxCell id="18" value="Authenticates user" style="curved=1;startArrow=none;endArrow=block;exitX=-5.24;exitY=-5.38;entryX=-2.16;entryY=-5.38;" edge="1" parent="14" source="16" target="15">
          <mxGeometry relative="1" as="geometry">
            <Array as="points" />
          </mxGeometry>
        </mxCell>
        <mxCell id="19" value="" style="curved=1;startArrow=none;endArrow=block;exitX=-1.16;exitY=-5.38;entryX=-3.09;entryY=-5.38;" edge="1" parent="14" source="15" target="17">
          <mxGeometry relative="1" as="geometry">
            <Array as="points" />
          </mxGeometry>
        </mxCell>
        <mxCell id="20" value="Maintain Profile" style="whiteSpace=wrap;strokeWidth=2;verticalAlign=top;" vertex="1" parent="3">
          <mxGeometry x="981" y="200" width="559" height="104" as="geometry" />
        </mxCell>
        <mxCell id="21" value="View Profile" style="whiteSpace=wrap;strokeWidth=2;" vertex="1" parent="20">
          <mxGeometry x="272" y="43" width="102" height="34" as="geometry" />
        </mxCell>
        <mxCell id="22" value="Login" style="whiteSpace=wrap;strokeWidth=2;" vertex="1" parent="20">
          <mxGeometry x="33" y="43" width="53" height="34" as="geometry" />
        </mxCell>
        <mxCell id="23" value="Update Profile" style="whiteSpace=wrap;strokeWidth=2;" vertex="1" parent="20">
          <mxGeometry x="424" y="43" width="118" height="34" as="geometry" />
        </mxCell>
        <mxCell id="24" value="Authenticates user" style="curved=1;startArrow=none;endArrow=block;exitX=-17.51;exitY=-5.38;entryX=-9.62;entryY=-5.38;" edge="1" parent="20" source="22" target="21">
          <mxGeometry relative="1" as="geometry">
            <Array as="points" />
          </mxGeometry>
        </mxCell>
        <mxCell id="25" value="" style="curved=1;startArrow=none;endArrow=block;exitX=-8.62;exitY=-5.38;entryX=-8.31;entryY=-5.38;" edge="1" parent="20" source="21" target="23">
          <mxGeometry relative="1" as="geometry">
            <Array as="points" />
          </mxGeometry>
        </mxCell>
        <mxCell id="26" value="Service Center" style="whiteSpace=wrap;strokeWidth=2;verticalAlign=top;" vertex="1" parent="2">
          <mxGeometry x="33" y="581" width="1567" height="488" as="geometry" />
        </mxCell>
        <mxCell id="27" value="Online Scheduling" style="whiteSpace=wrap;strokeWidth=2;verticalAlign=top;" vertex="1" parent="26">
          <mxGeometry x="43" y="33" width="238" height="438" as="geometry" />
        </mxCell>
        <mxCell id="28" value="Select Service" style="whiteSpace=wrap;strokeWidth=2;" vertex="1" parent="27">
          <mxGeometry x="69" y="136" width="116" height="34" as="geometry" />
        </mxCell>
        <mxCell id="29" value="Login" style="whiteSpace=wrap;strokeWidth=2;" vertex="1" parent="27">
          <mxGeometry x="101" y="33" width="53" height="34" as="geometry" />
        </mxCell>
        <mxCell id="30" value="Select Date" style="whiteSpace=wrap;strokeWidth=2;" vertex="1" parent="27">
          <mxGeometry x="79" y="219" width="97" height="34" as="geometry" />
        </mxCell>
        <mxCell id="31" value="Select Time" style="whiteSpace=wrap;strokeWidth=2;" vertex="1" parent="27">
          <mxGeometry x="78" y="303" width="99" height="34" as="geometry" />
        </mxCell>
        <mxCell id="32" value="Confirm Appointment" style="whiteSpace=wrap;strokeWidth=2;" vertex="1" parent="27">
          <mxGeometry x="43" y="387" width="168" height="34" as="geometry" />
        </mxCell>
        <mxCell id="33" value="Authenticates user" style="curved=1;startArrow=none;endArrow=block;exitX=-0.32;exitY=0.02;entryX=0.13;entryY=-0.98;" edge="1" parent="27" source="29" target="28">
          <mxGeometry relative="1" as="geometry">
            <Array as="points" />
          </mxGeometry>
        </mxCell>
        <mxCell id="34" value="" style="curved=1;startArrow=none;endArrow=block;exitX=0.13;exitY=0.01;entryX=0.05;entryY=-0.96;" edge="1" parent="27" source="28" target="30">
          <mxGeometry relative="1" as="geometry">
            <Array as="points" />
          </mxGeometry>
        </mxCell>
        <mxCell id="35" value="" style="curved=1;startArrow=none;endArrow=block;exitX=0.05;exitY=0.04;entryX=0.06;entryY=-0.96;" edge="1" parent="27" source="30" target="31">
          <mxGeometry relative="1" as="geometry">
            <Array as="points" />
          </mxGeometry>
        </mxCell>
        <mxCell id="36" value="" style="curved=1;startArrow=none;endArrow=block;exitX=0.06;exitY=0.03;entryX=0.25;entryY=-0.97;" edge="1" parent="27" source="31" target="32">
          <mxGeometry relative="1" as="geometry">
            <Array as="points" />
          </mxGeometry>
        </mxCell>
        <mxCell id="37" value="View Status" style="whiteSpace=wrap;strokeWidth=2;verticalAlign=top;" vertex="1" parent="26">
          <mxGeometry x="331" y="200" width="599" height="104" as="geometry" />
        </mxCell>
        <mxCell id="38" value="View Appointments" style="whiteSpace=wrap;strokeWidth=2;" vertex="1" parent="37">
          <mxGeometry x="272" y="43" width="153" height="34" as="geometry" />
        </mxCell>
        <mxCell id="39" value="Login" style="whiteSpace=wrap;strokeWidth=2;" vertex="1" parent="37">
          <mxGeometry x="33" y="43" width="53" height="34" as="geometry" />
        </mxCell>
        <mxCell id="40" value="Check Status" style="whiteSpace=wrap;strokeWidth=2;" vertex="1" parent="37">
          <mxGeometry x="475" y="43" width="107" height="34" as="geometry" />
        </mxCell>
        <mxCell id="41" value="Authenticates user" style="curved=1;startArrow=none;endArrow=block;exitX=-5.24;exitY=-5.38;entryX=-2.16;entryY=-5.38;" edge="1" parent="37" source="39" target="38">
          <mxGeometry relative="1" as="geometry">
            <Array as="points" />
          </mxGeometry>
        </mxCell>
        <mxCell id="42" value="" style="curved=1;startArrow=none;endArrow=block;exitX=-1.16;exitY=-5.38;entryX=-3.09;entryY=-5.38;" edge="1" parent="37" source="38" target="40">
          <mxGeometry relative="1" as="geometry">
            <Array as="points" />
          </mxGeometry>
        </mxCell>
        <mxCell id="43" value="Maintain Profile" style="whiteSpace=wrap;strokeWidth=2;verticalAlign=top;" vertex="1" parent="26">
          <mxGeometry x="981" y="200" width="559" height="104" as="geometry" />
        </mxCell>
        <mxCell id="44" value="View Profile" style="whiteSpace=wrap;strokeWidth=2;" vertex="1" parent="43">
          <mxGeometry x="272" y="43" width="102" height="34" as="geometry" />
        </mxCell>
        <mxCell id="45" value="Login" style="whiteSpace=wrap;strokeWidth=2;" vertex="1" parent="43">
          <mxGeometry x="33" y="43" width="53" height="34" as="geometry" />
        </mxCell>
        <mxCell id="46" value="Update Profile" style="whiteSpace=wrap;strokeWidth=2;" vertex="1" parent="43">
          <mxGeometry x="424" y="43" width="118" height="34" as="geometry" />
        </mxCell>
        <mxCell id="47" value="Authenticates user" style="curved=1;startArrow=none;endArrow=block;exitX=-17.51;exitY=-5.38;entryX=-9.62;entryY=-5.38;" edge="1" parent="43" source="45" target="44">
          <mxGeometry relative="1" as="geometry">
            <Array as="points" />
          </mxGeometry>
        </mxCell>
        <mxCell id="48" value="" style="curved=1;startArrow=none;endArrow=block;exitX=-8.62;exitY=-5.38;entryX=-8.31;entryY=-5.38;" edge="1" parent="43" source="44" target="46">
          <mxGeometry relative="1" as="geometry">
            <Array as="points" />
          </mxGeometry>
        </mxCell>
      </root>
    </mxGraphModel>
  </diagram>
</mxfile>
